<?xml version="1.0" encoding="utf-8"?>
<!-- Generator: Adobe Illustrator 21.0.0, SVG Export Plug-In . SVG Version: 6.00 Build 0)  -->
<svg version="1.1" xmlns="http://www.w3.org/2000/svg" xmlns:xlink="http://www.w3.org/1999/xlink" x="0px" y="0px"
	 viewBox="0 0 374.2 408.1" style="enable-background:new 0 0 374.2 408.1;" xml:space="preserve">
<style type="text/css">
	.st0{fill:#024978;}
	.st1{fill:#103D65;}
	.st2{fill:#575757;}
	.st3{fill:#FFFFFF;}
	.st4{fill:#6CC7E4;}
	.st5{fill:none;}
	.st6{fill:#FFED00;}
	.st7{fill:#F39200;}
	.st8{fill:url(#SVGID_1_);}
	.st9{fill:url(#SVGID_2_);}
	.st10{fill:none;stroke:#6CC7E4;stroke-width:3;stroke-miterlimit:10;}
	.st11{fill:#23244C;}
	.st12{fill:#FFFFFF;stroke:#000000;stroke-miterlimit:10;}
	.st13{fill:url(#SVGID_3_);}
	.st14{fill:url(#SVGID_4_);}
	.st15{fill:url(#SVGID_5_);}
	.st16{fill:url(#SVGID_6_);}
	.st17{fill:url(#SVGID_7_);}
	.st18{fill:url(#SVGID_8_);}
	.st19{fill:#0667AD;}
	.st20{fill:#045280;}
	.st21{fill:#1A82C5;}
	.st22{fill:url(#SVGID_9_);}
	.st23{fill:#0465A6;}
	.st24{fill:#0C70B8;}
	.st25{fill:#3EABE2;}
	.st26{fill:url(#SVGID_10_);}
	.st27{fill:url(#SVGID_11_);}
	.st28{fill:url(#SVGID_12_);}
	.st29{fill:url(#SVGID_13_);}
	.st30{fill:url(#SVGID_14_);}
	.st31{fill:url(#SVGID_15_);}
	.st32{fill:#E6332A;}
	.st33{fill:#29235C;}
	.st34{fill:#009FE3;}
	.st35{fill:none;stroke:#29235C;stroke-miterlimit:10;}
	.st36{fill:#2B2F5B;}
</style>
<g id="Capa_1">
</g>
<g id="Capa_2">
	<rect class="st0" width="374.2" height="408.1"/>
	<g>
		<g>
			<path class="st3" d="M53.7,327.2c-2.5-2.8-4.4-5.6-5.6-8.4c-1.3-2.8-0.2-5.9,3.3-9.4l31.4-30.9c2.8-2.5,5.5-3.4,8.2-2.6
				c2.6,0.8,5.4,2.4,8.2,4.9c4.7,4.7,9.9,9.4,15.7,14.3c5.8,4.8,12,9.2,18.7,13.1c6.7,3.9,14,7,21.8,9.4c7.8,2.3,16.1,3.5,24.8,3.5
				c9.4,0,17.6-1.2,24.8-3.7c7.2-2.5,13.3-5.9,18.5-10.1c5.2-4.2,9-9,11.7-14.5c2.6-5.5,4-11.2,4-17.1c0-7.5-2.3-13.8-6.8-19
				c-4.5-5.2-10.1-9.5-16.6-13.1c-6.6-3.6-13.7-6.6-21.3-8.9c-7.7-2.3-14.6-4.3-20.8-5.9c-37.8-11.2-66.6-25-86.4-41.4
				C67.4,171,57.5,149.6,57.5,123c0-14.4,3-27.5,9.1-39.3c6.1-11.9,14.7-22.1,25.8-30.7c11.1-8.6,24.4-15.2,40-19.9
				c15.6-4.7,32.8-7,51.5-7c20.6,0,40.3,4.8,59.2,14.5c18.9,9.7,35.3,21.5,49.4,35.6c5.6,5.9,5.5,12-0.5,18.3l-25.8,27.6
				c-3.1,2.8-6.1,3.7-8.9,2.6c-2.8-1.1-5.8-2.9-8.9-5.4c-3.7-3.1-8-6.6-12.9-10.3c-4.8-3.7-10.1-7.3-15.9-10.5
				c-5.8-3.3-11.9-6-18.3-8.2c-6.4-2.2-13-3.3-19.9-3.3c-5.9,0-12.1,0.5-18.5,1.4c-6.4,0.9-12.2,2.7-17.3,5.4
				c-5.1,2.7-9.4,6.4-12.9,11.2c-3.4,4.8-5.2,11.3-5.2,19.4c0,5.9,1.6,11.1,4.9,15.5c3.3,4.4,8,8.2,14,11.5
				c6.1,3.3,13.3,6.3,21.5,9.1c8.3,2.8,17.4,5.6,27.4,8.4c15.9,4.7,30.9,9.9,44.9,15.7c14,5.8,26.3,12.9,36.8,21.3
				c10.5,8.4,18.8,18.4,25,30c6.2,11.6,9.4,25.4,9.4,41.7c0,16.2-3.6,31-10.8,44.2c-7.2,13.3-16.8,24.6-28.8,33.9
				c-12,9.4-25.9,16.5-41.7,21.5c-15.8,5-32.1,7.5-48.9,7.5c-24.3,0-47.8-5.3-70.2-15.9C88.8,358.2,69.7,344.3,53.7,327.2z"/>
		</g>
	</g>
	<path class="st3" d="M222.4,333.9c-24.3,0-47.8-5.3-70.2-15.9c-4.8-2.3-9.5-4.7-14.1-7.3c-1.8-0.9-3.5-1.8-5.2-2.8
		c-6.7-3.9-13-8.3-18.7-13.1c-5.8-4.8-11-9.6-15.7-14.3c-2.8-2.5-5.5-4.1-8.2-4.9c-2.7-0.8-5.4,0.1-8.2,2.6L50.8,309
		c-3.4,3.4-4.5,6.6-3.3,9.4c1.2,2.8,3.1,5.6,5.6,8.4c15.9,17.2,35.1,31.1,57.6,41.7c22.5,10.6,45.9,15.9,70.2,15.9
		c16.9,0,33.2-2.5,48.9-7.5c15.8-5,29.6-12.2,41.7-21.5c12-9.4,21.6-20.7,28.8-33.9c1.9-3.6,3.6-7.3,5-11.1
		c-10.2,6.7-21.5,12.1-34,16.1C255.6,331.4,239.3,333.9,222.4,333.9z"/>
	<path class="st3" d="M99.6,87.2c15.6-4.7,32.8-7,51.5-7c17,0,33.5,3.3,49.4,9.9c0.4,0.1,0.8,0.2,1.2,0.4c6.4,2.2,12.5,4.9,18.3,8.2
		c5.8,3.3,11.1,6.8,15.9,10.5c4.8,3.7,9.1,7.2,12.9,10.3c3.1,2.5,6.1,4.3,8.9,5.4c2.8,1.1,5.8,0.2,8.9-2.6l25.8-27.6
		c5.9-6.2,6.1-12.3,0.5-18.3c-14-14-30.5-25.9-49.4-35.6c-18.9-9.7-38.6-14.5-59.2-14.5c-18.7,0-35.9,2.3-51.5,7
		c-15.6,4.7-29,11.3-40,19.9c-11.1,8.6-19.7,18.8-25.8,30.7c-3.8,7.4-6.4,15.3-7.8,23.7c0.2-0.2,0.4-0.3,0.6-0.5
		C70.6,98.5,84,91.9,99.6,87.2z"/>
	<circle class="st7" cx="43.9" cy="259.4" r="31.2"/>
	<path class="st3" d="M281.3,164.3c-8.5-6-14.3-14.3-17.4-23.4c-1.5-4.3-2.3-8.8-2.5-13.4c-14-9.9-36.8-26-58.4-41.2l37.5-41.2
		l51.6,36.5c4.1-1.5,8.3-2.4,12.6-2.7c10.6-0.9,21.6,1.8,30.9,8.5c12.3,8.7,19.1,22.1,19.9,36.1c0.4,7.2-5.9,9.6-11.8,5.4l-21.2-15
		c-4.8-3.4-11.5-2.2-14.9,2.6l-9.4,13.3c-3.4,4.8-2.3,11.5,2.6,14.8l20.6,14.5c5.9,4.2,5.6,10.7-1.4,12.4
		C307.1,174.7,293,172.6,281.3,164.3z"/>
</g>
<g id="Capa_3">
</g>
<g id="Capa_4">
</g>
</svg>
