<svg id="Capa_1" data-name="Capa 1" xmlns="http://www.w3.org/2000/svg" viewBox="0 0 1467.15 408"><defs><style>.cls-1{fill:#fff;}.cls-2{fill:#f39200;}</style></defs><title>Logoserrviya</title><path class="cls-1" d="M394.31,260.69a39.64,39.64,0,0,0,14.48-2,82.72,82.72,0,0,0,13.81-6.06,37.07,37.07,0,0,0,5.05-3A7.7,7.7,0,0,1,432,247.9a5.94,5.94,0,0,1,5.05,3l12.46,19.87a9,9,0,0,1,1.68,4.38,6.51,6.51,0,0,1-1.68,4.55,37.06,37.06,0,0,1-3.7,3.54,93.06,93.06,0,0,1-23.4,12.8,76.94,76.94,0,0,1-27.11,4.71A83.08,83.08,0,0,1,362.15,294a86.44,86.44,0,0,1-27.28-18.35,88.2,88.2,0,0,1-18.52-27.45,85.32,85.32,0,0,1-.17-66.85,92.18,92.18,0,0,1,18.19-27.61A85.71,85.71,0,0,1,361,134.91,77.12,77.12,0,0,1,393.3,128a78.56,78.56,0,0,1,30.64,6.06,82.89,82.89,0,0,1,25.42,16.5A76.52,76.52,0,0,1,466.54,175a72.39,72.39,0,0,1,6.23,29.8q0,13.13-2.19,19t-9.6,5.89H356.25a28.45,28.45,0,0,0,4.38,13.13,37.59,37.59,0,0,0,9.09,9.77,38.72,38.72,0,0,0,12,6.06A42.89,42.89,0,0,0,394.31,260.69ZM356.25,197h72.4q-.68-12.66-10.95-21.65t-25.42-9a33.6,33.6,0,0,0-12.12,2.33,39.89,39.89,0,0,0-11.11,6.5,37.4,37.4,0,0,0-8.42,9.82A33.64,33.64,0,0,0,356.25,197Z"/><path class="cls-1" d="M540.89,140.81q.33,1.69,1.68,6.57t1.68,6.57a91,91,0,0,1,7.24-8.42,55.5,55.5,0,0,1,9.6-7.91,59.35,59.35,0,0,1,11.62-5.89,38.31,38.31,0,0,1,13.64-2.36h3.2a16.66,16.66,0,0,1,3.2.34,41.05,41.05,0,0,1,10.78,2.53A89.36,89.36,0,0,1,615,137.27a49.61,49.61,0,0,1,9.09,6.06q3.7,3.2,3.7,5.89a9.27,9.27,0,0,1-1.68,4.71l-13.47,21.89q-3,4.72-7.07,4.71a11.33,11.33,0,0,1-4-1.18q-2.7-1.18-5.72-2.86a38.66,38.66,0,0,0-8.25-4.71,23.2,23.2,0,0,0-8.25-1.35A30.09,30.09,0,0,0,566,173.3a30.41,30.41,0,0,0-9.93,7.58,34.83,34.83,0,0,0-6.23,10.61,33.14,33.14,0,0,0-2.19,11.62v85.2q0,8.42-9.09,8.42h-28q-8.76,0-8.76-8.42V140.81q0-4.37,2.69-6.57a9.37,9.37,0,0,1,6.06-2.19h21.55q4,0,5.89,2.69A21.75,21.75,0,0,1,540.89,140.81Z"/><path class="cls-1" d="M695.43,139.12l33.34,92.94,33-93.28q3.36-7.4,11.45-7.41h30q9.09,0,9.09,7.75a7.6,7.6,0,0,1-.51,2.69,7.33,7.33,0,0,0-.5,1.68L753,286.28a25.57,25.57,0,0,1-4.55,7.24,9.29,9.29,0,0,1-7.24,3.2H716.31q-6.06,0-8.76-4.38a61.15,61.15,0,0,1-4.71-9.43l-27.61-68q-7.07-17.17-14.31-35.36T646.6,144.85q-.34-1-.84-2.86a12.4,12.4,0,0,1-.51-3.2q0-7.4,8.76-7.41h30.64Q692.74,131.38,695.43,139.12Z"/><path class="cls-2" d="M1090.14,145.86,1008,356q-3.37,7.4-10.78,7.41H969.92a13.8,13.8,0,0,1-6.57-1.52q-2.87-1.52-2.86-5.56a18.72,18.72,0,0,1,.67-4.38L982.38,295,921.09,144.85a10.79,10.79,0,0,1-1.18-3.54,21.22,21.22,0,0,1-.17-2.19q0-7.4,9.09-7.41h29.3a10.89,10.89,0,0,1,7.07,2.19,11.14,11.14,0,0,1,3.7,5.56l36.71,98.33L1042,139.12q2.35-7.4,11.11-7.41h29q5.38,0,7.41,2.19a8.35,8.35,0,0,1,2,5.89A21.5,21.5,0,0,1,1090.14,145.86Z"/><path class="cls-2" d="M1221.66,287.63q-.68-3.36-1-5.56t-1-5.56q-3,4.38-6.74,8.76a38,38,0,0,1-8.75,7.58,47.28,47.28,0,0,1-11.79,5.22,56.75,56.75,0,0,1-16.16,2h-.67a80.89,80.89,0,0,1-32.83-6.57,76.64,76.64,0,0,1-25.76-18.18,84.85,84.85,0,0,1-16.84-27.11,91.6,91.6,0,0,1-6.06-33.68,95.27,95.27,0,0,1,5.89-33.84,80.26,80.26,0,0,1,16.67-27.11,77.85,77.85,0,0,1,25.76-18,81.76,81.76,0,0,1,33.17-6.57q17.84,0,27.78,7.07A86.77,86.77,0,0,1,1221,152.93l3.37-12.8q1.34-5.72,3-7.58t6.4-1.85l18.86.67a10.27,10.27,0,0,1,6.74,2.53,8.14,8.14,0,0,1,3,6.57V288.31a7.22,7.22,0,0,1-3,6.23,11.22,11.22,0,0,1-6.74,2.19h-21.55q-5.05,0-6.9-2.53A15.14,15.14,0,0,1,1221.66,287.63Zm-83.85-72.74a52,52,0,0,0,2.86,17.51,42.21,42.21,0,0,0,8.25,14.14,37.84,37.84,0,0,0,12.8,9.43,39.39,39.39,0,0,0,16.5,3.37q18.86,0,29.8-12.63T1219,215.23a55.59,55.59,0,0,0-2.69-17.34,41.79,41.79,0,0,0-8.08-14.48,39,39,0,0,0-12.8-9.77,39.46,39.46,0,0,0-17.17-3.54,38.93,38.93,0,0,0-16.67,3.54,36.72,36.72,0,0,0-12.8,9.77,45.85,45.85,0,0,0-8.08,14.31A51,51,0,0,0,1137.81,214.89Z"/><path class="cls-2" d="M1311.17,273.82a26.07,26.07,0,0,1,8.08-19.36,26.52,26.52,0,0,1,19.2-7.91q11.78,0,19.53,7.91a27.87,27.87,0,0,1,0,38.56,25.92,25.92,0,0,1-19.53,8.08,27.6,27.6,0,0,1-27.28-27.28ZM1363,55.95V214.22a9.26,9.26,0,0,1-2.36,6.57,8.77,8.77,0,0,1-6.74,2.53H1323.3a10,10,0,0,1-6.57-2.36,8.22,8.22,0,0,1-2.86-6.73V55.95q0-9.09,9.43-9.09h30.64Q1363,46.85,1363,55.95Z"/><path class="cls-1" d="M106.34,264.4a23.92,23.92,0,0,1-4.1-6.15q-1.37-3.08,2.39-6.84l22.9-22.56q3.08-2.73,6-1.88a16.12,16.12,0,0,1,6,3.59q5.13,5.13,11.45,10.43a96.88,96.88,0,0,0,13.67,9.57,73.26,73.26,0,0,0,15.9,6.84A62.71,62.71,0,0,0,198.64,260a55,55,0,0,0,18.12-2.74,43.83,43.83,0,0,0,13.5-7.35,31.38,31.38,0,0,0,8.55-10.6,28.25,28.25,0,0,0,2.91-12.48,20.24,20.24,0,0,0-5-13.84,44.31,44.31,0,0,0-12.13-9.57,82.92,82.92,0,0,0-15.55-6.49q-8.38-2.56-15.21-4.27-41.37-12.31-63.07-30.25t-21.71-47a62,62,0,0,1,6.67-28.71,66.63,66.63,0,0,1,18.8-22.39,88.9,88.9,0,0,1,29.23-14.53,130.45,130.45,0,0,1,37.6-5.13,93.68,93.68,0,0,1,43.24,10.6,142.42,142.42,0,0,1,36.06,26q6.15,6.5-.34,13.33l-18.8,20.17q-3.42,3.08-6.49,1.88a25.09,25.09,0,0,1-6.49-3.93q-4.1-3.41-9.4-7.52a98.32,98.32,0,0,0-11.62-7.69,78.42,78.42,0,0,0-13.33-6A44.78,44.78,0,0,0,199.66,89a93.22,93.22,0,0,0-13.5,1A40.17,40.17,0,0,0,173.51,94a26,26,0,0,0-9.4,8.2q-3.77,5.3-3.76,14.19a18.27,18.27,0,0,0,3.59,11.28A30.73,30.73,0,0,0,174.19,136a103.53,103.53,0,0,0,15.72,6.67q9.05,3.08,20,6.15a335.3,335.3,0,0,1,32.82,11.45,107.87,107.87,0,0,1,26.84,15.55,71.73,71.73,0,0,1,18.29,21.88q6.83,12.65,6.84,30.42a66.77,66.77,0,0,1-7.86,32.3,78.51,78.51,0,0,1-21,24.78A96.31,96.31,0,0,1,235.38,301a119.11,119.11,0,0,1-87-6.15A135.48,135.48,0,0,1,106.34,264.4Z"/><path class="cls-1" d="M229.51,269.3a118.69,118.69,0,0,1-51.28-11.62q-5.31-2.5-10.27-5.35-1.93-1-3.79-2.05a96.94,96.94,0,0,1-13.67-9.57q-6.33-5.3-11.45-10.43a16.14,16.14,0,0,0-6-3.59q-2.91-.85-6,1.88l-22.9,22.56q-3.77,3.76-2.39,6.84a23.92,23.92,0,0,0,4.1,6.15,135.48,135.48,0,0,0,42,30.42,119.11,119.11,0,0,0,87,6.15A96.3,96.3,0,0,0,265.36,285a78.51,78.51,0,0,0,21-24.78,63.65,63.65,0,0,0,3.66-8.08,98.63,98.63,0,0,1-24.81,11.72A117.68,117.68,0,0,1,229.51,269.3Z"/><path class="cls-1" d="M139.81,89.18a130.44,130.44,0,0,1,37.6-5.13,92.72,92.72,0,0,1,36,7.26l.84.27a78.42,78.42,0,0,1,13.33,6,98.28,98.28,0,0,1,11.62,7.69q5.3,4.1,9.4,7.52a25.1,25.1,0,0,0,6.49,3.93q3.08,1.2,6.49-1.88l18.8-20.17q6.49-6.83.34-13.33a142.41,142.41,0,0,0-36.06-26,93.67,93.67,0,0,0-43.24-10.6,130.44,130.44,0,0,0-37.6,5.13A88.89,88.89,0,0,0,134.65,64.4a66.62,66.62,0,0,0-18.8,22.39,59.57,59.57,0,0,0-5.72,17.28l.46-.37A88.89,88.89,0,0,1,139.81,89.18Z"/><path class="cls-1" d="M834.2,82.21a26.07,26.07,0,0,1,44.45-18.35,25.3,25.3,0,0,1,7.41,18.35,24.73,24.73,0,0,1-7.41,18.18,26.65,26.65,0,0,1-36.87,0A24.44,24.44,0,0,1,834.2,82.21ZM884,139.46V289q0,7.75-8.42,7.75h-29.3q-7.75,0-7.75-7.75V139.46a8.36,8.36,0,0,1,2-5.89,7.4,7.4,0,0,1,5.72-2.19h29.3a9,9,0,0,1,5.72,2.19A7.21,7.21,0,0,1,884,139.46Z"/><circle class="cls-2" cx="860.04" cy="82.27" r="26.16"/><path class="cls-1" d="M272.52,145.5a34.26,34.26,0,0,1-12.71-17.1,33.7,33.7,0,0,1-1.79-9.77L215.42,88.55l27.35-30.07,37.7,26.62a35,35,0,0,1,9.17-2,34.37,34.37,0,0,1,37.1,32.52c.27,5.26-4.31,7-8.61,4l-15.51-11a7.84,7.84,0,0,0-10.89,1.89l-6.86,9.73a7.76,7.76,0,0,0,1.86,10.83l15,10.62c4.3,3,4.08,7.79-1,9.08A34.28,34.28,0,0,1,272.52,145.5Z"/></svg>